<?xml version="1.0" encoding="utf-8"?>
<!-- Generator: Adobe Illustrator 19.2.1, SVG Export Plug-In . SVG Version: 6.00 Build 0)  -->
<svg version="1.1" id="layer" xmlns="http://www.w3.org/2000/svg" xmlns:xlink="http://www.w3.org/1999/xlink" x="0px" y="0px"
	 viewBox="0 0 652 652" style="enable-background:new 0 0 652 652;" xml:space="preserve">
<style type="text/css">
	.st0{fill:#222222;}
	.st1{fill:#B17E6E;}
</style>
<g>
	<g id="Layer_1-2">
		<g id="_Group_">
			<polygon class="st0" points="29.1,428.5 29.1,223.9 325.8,175 622.5,223.9 622.5,428.5 325.8,477.4 			"/>
			<path class="st1" d="M325.8,178.3l293.4,48.6v198.9l-293.4,48.6L32.1,425.8V226.6L325.8,178.3 M325.8,171.7h-0.9L31.2,220.3
				l-5.4,0.6v210l5.4,0.9l293.7,48.6h0.9h0.9l293.7-48.3l5.4-0.9v-210l-5.4-0.9l-293.7-48.6H325.8z"/>
		</g>
		<path class="st1" d="M57,409.6c-0.3,0-0.6,0-0.9,0c-0.3,0-0.6-0.3-0.9-0.3c-0.3,0-0.6-0.3-0.9-0.3l-0.9-0.9
			c-0.9-0.9-1.5-2.4-1.5-3.9c0-0.3,0-0.6,0-0.9c0-0.3,0-0.6,0.3-0.9c0-0.3,0.3-0.6,0.6-0.9c0.3-0.3,0.3-0.6,0.6-0.9
			c1.5-1.5,3.6-1.8,5.7-1.2c0.6,0.3,1.2,0.6,1.8,1.2c0.9,0.9,1.5,2.4,1.5,3.6c0,1.5-0.6,2.7-1.5,3.6l-0.9,0.6
			c-0.3,0.3-0.6,0.3-0.9,0.3c-0.3,0.3-0.6,0.3-0.9,0.3C57.6,409.3,57.3,409.6,57,409.6z"/>
		<path class="st1" d="M51.9,373c0-2.7,2.4-4.8,4.8-4.8l0,0c2.7,0,5.1,2.1,5.1,4.8l0,0c0,3-2.4,5.1-5.1,5.1l0,0
			C54,378.1,51.9,375.7,51.9,373z M51.9,341.8c0-2.7,2.1-5.1,4.8-5.1l0,0c3,0,5.1,2.4,5.1,5.1l0,0c-0.3,2.7-2.4,4.8-5.1,4.8l0,0
			C54,346.6,51.9,344.5,51.9,341.8z M51.9,310.6c0-2.7,2.4-4.8,4.8-4.8l0,0c2.7,0,5.1,2.1,5.1,4.8l0,0c0,3-2.4,5.1-5.1,5.1l0,0
			C54,315.7,51.9,313.3,51.9,310.6z M51.9,279.4c0-2.7,2.1-5.1,4.8-5.1l0,0c3,0,5.1,2.4,5.1,5.1l0,0c0,2.7-2.4,4.8-5.1,4.8l0,0
			C54,284.2,51.9,282.1,51.9,279.4z"/>
		<path class="st1" d="M57,253.3h-0.9c-0.3,0-0.6-0.3-0.9-0.3c-0.3,0-0.6-0.3-0.9-0.6c-0.3-0.3-0.6-0.3-0.9-0.6
			c-0.3-0.3-0.6-0.6-0.6-0.9c-0.3-0.3-0.3-0.6-0.6-0.9c-0.3-0.6-0.3-1.2-0.3-2.1c0-1.5,0.6-2.7,1.5-3.6c0.6-0.6,0.9-0.9,1.8-1.2
			c1.2-0.6,2.7-0.6,3.9,0c0.6,0.3,1.2,0.6,1.8,1.2c0.9,0.9,1.5,2.4,1.5,3.6c0,0.6,0,1.2-0.3,2.1c-0.3,0.6-0.6,1.2-1.2,1.8
			c-0.3,0.3-0.6,0.6-0.9,0.6l-0.9,0.6c-0.3,0.3-0.6,0.3-0.9,0.3H57z"/>
		<path class="st1" d="M563.7,248.2c-2.7-0.6-4.8-3.3-4.2-6l0,0c0.6-2.7,3-4.8,6-4.2l0,0l0,0c2.7,0.6,4.8,3,4.2,6l0,0
			c-0.3,2.4-2.4,4.2-4.8,4.5L563.7,248.2L563.7,248.2z M81.9,244c-0.6-2.7,1.5-5.4,4.2-6l0,0c2.7-0.3,5.4,1.5,6,4.2l0,0
			c0.6,2.7-1.2,5.4-3.9,6c-0.3,0-0.3,0-0.6,0l0,0h-0.9l0,0C84.3,248.2,82.2,246.4,81.9,244z M534,243.1c-2.7-0.6-4.8-3.3-4.2-6l0,0
			c0.6-2.7,3.3-4.8,6-4.2l0,0c2.7,0.3,4.8,2.4,4.5,5.4c0,0.3,0,0.6,0,0.6l0,0c-0.3,2.4-2.4,4.2-4.8,4.2h-0.9H534z M111.6,238.9
			c-0.3-2.7,1.5-5.4,4.2-6l0,0c2.7-0.6,5.4,1.5,6,4.2l0,0c0.3,2.7-1.5,5.4-4.2,6l0,0h-0.9l0,0C114.3,243.1,112.2,241.3,111.6,238.9z
			 M504,238.3c-2.7-0.6-4.8-3.3-4.2-6l0,0c0.6-2.7,3.3-4.8,6-4.2l0,0c2.7,0.3,4.8,2.7,4.2,5.4c0,0.3,0,0.3,0,0.6l0,0
			c-0.3,2.4-2.4,4.2-4.8,4.5l0,0L504,238.3z M141.6,233.8c-0.6-2.7,1.5-5.4,4.2-6l0,0c2.7-0.6,5.4,1.2,6,3.9c0,0.3,0,0.3,0,0.6l0,0
			c0.6,2.7-1.2,5.4-3.9,6c-0.3,0-0.3,0-0.6,0h-0.9C144,238,141.9,236.2,141.6,233.8z M474,233.2c-2.7-0.3-4.8-2.7-4.2-5.4
			c0-0.3,0-0.3,0-0.6l0,0c0.6-2.7,3-4.8,6-4.2l0,0c2.7,0.6,4.8,3.3,4.2,6l0,0c-0.3,2.4-2.4,4.2-4.8,4.5l0,0L474,233.2z M171.3,228.7
			c-0.6-2.7,1.2-5.4,3.9-6c0.3,0,0.3,0,0.6,0l0,0c2.7-0.6,5.4,1.2,6,3.9c0,0.3,0,0.3,0,0.6l0,0c0.6,2.7-1.5,5.4-4.2,6h-1.2
			C174,233.2,171.6,231.4,171.3,228.7z M444.3,228.1c-2.7-0.3-4.5-2.7-4.2-5.4v-0.3l0,0c0.6-3,3.3-4.8,6-4.2l0,0l0,0
			c2.7,0.6,4.8,3.3,4.2,6l0,0c-0.3,2.4-2.4,4.2-4.8,4.5l0,0L444.3,228.1z M201.3,223.6c-0.6-2.7,1.5-5.4,4.2-6l0,0
			c2.7-0.6,5.4,1.2,6,3.9c0,0.3,0,0.3,0,0.6l0,0c0.6,2.7-1.2,5.4-3.6,6c-0.3,0-0.3,0-0.6,0l0,0h-0.9l0,0
			C203.7,227.8,201.6,226,201.3,223.6z M414.6,223.3c-2.7-0.6-4.8-3.3-4.2-6l0,0c0.6-2.7,3-4.8,6-4.2l0,0c2.7,0.6,4.8,3,4.2,6l0,0
			c-0.3,2.4-2.4,4.2-4.8,4.5L414.6,223.3L414.6,223.3z M231,218.5c-0.6-2.7,1.5-5.4,4.2-6l0,0c2.7-0.6,5.4,1.5,6,4.2l0,0
			c0.6,2.7-1.5,5.4-4.2,6l0,0h-0.9l0,0C233.7,222.7,231.6,221.2,231,218.5z M384.3,218.2c-2.7-0.6-4.8-3.3-4.2-6l0,0
			c0.3-2.7,2.7-4.8,5.4-4.2c0.3,0,0.3,0,0.6,0l0,0c2.7,0.3,4.5,2.7,4.2,5.4v0.3l0,0c-0.3,2.4-2.4,4.2-4.8,4.5L384.3,218.2
			L384.3,218.2z M260.7,213.4c-0.6-2.7,1.2-5.4,3.9-6c0.3,0,0.3,0,0.6,0l0,0c2.7-0.6,5.4,1.5,6,4.2l0,0c0.3,2.7-1.5,5.4-4.2,6h-0.9
			C263.4,217.6,261.3,215.8,260.7,213.4L260.7,213.4z M354.6,213.1c-2.7-0.6-4.8-3.3-4.2-6l0,0c0.3-2.7,2.7-4.8,5.4-4.2
			c0.3,0,0.3,0,0.6,0l0,0c2.7,0.3,4.8,2.7,4.2,5.4c0,0.3,0,0.3,0,0.6l0,0c-0.3,2.4-2.4,4.2-4.8,4.2H354.6L354.6,213.1z M290.7,208
			c-0.6-2.7,1.5-5.4,4.2-6l0,0c2.7-0.6,5.4,1.2,6,3.9c0,0.3,0,0.3,0,0.6l0,0c0.6,2.7-1.5,5.4-4.2,6h-0.9c-2.4,0-4.5-1.5-5.1-3.9V208
			z M324.9,207.7c-2.7-0.3-4.8-2.7-4.2-5.4c0-0.3,0-0.3,0-0.6l0,0c0.3-2.7,2.7-4.8,5.4-4.2c0.3,0,0.3,0,0.6,0l0,0
			c2.7,0.6,4.8,3.3,4.2,6l0,0c-0.3,2.4-2.4,4.2-4.8,4.5l0,0L324.9,207.7z"/>
		<path class="st1" d="M594.6,253.3c-1.5,0-2.7-0.6-3.6-1.5c-0.6-0.6-0.9-1.2-1.2-1.8s-0.3-1.2-0.3-2.1c0-0.3,0-0.6,0-0.9l0.3-1.2
			c0.3-0.6,0.6-1.2,1.2-1.8c0.6-0.6,0.9-0.9,1.8-1.2c1.8-0.9,4.2-0.3,5.7,1.2c0.9,0.9,1.5,2.4,1.5,3.6c0,0.6,0,1.5-0.3,2.1
			c0,0.3-0.3,0.6-0.6,0.9c-0.3,0.3-0.3,0.6-0.6,0.9C597.3,252.4,595.8,253.3,594.6,253.3z"/>
		<path class="st1" d="M589.2,373c0-2.7,2.4-4.8,5.1-4.8l0,0c2.7,0,4.8,2.4,4.8,4.8l0,0c0,2.7-2.4,4.8-4.8,4.8l0,0
			C591.6,378.1,589.5,376,589.2,373z M589.2,341.8c0-3,2.4-5.1,5.1-5.1l0,0l0,0c2.7,0,4.8,2.4,4.8,5.1l0,0c0,2.7-2.4,4.8-4.8,4.8
			l0,0C591.6,346.9,589.5,344.5,589.2,341.8z M589.2,310.6c0-3,2.1-5.4,5.1-5.4c0,0,0,0,0.3,0l0,0c2.7,0,4.8,2.4,4.8,5.1l0,0
			c0,2.7-2.1,5.1-4.8,5.1l0,0C591.6,315.7,589.2,313.3,589.2,310.6z M589.2,279.4c0-2.7,2.4-4.8,5.1-4.8l0,0c2.7,0,4.8,2.4,4.8,4.8
			l0,0c0,2.7-2.1,5.1-4.8,5.1l0,0C591.6,284.5,589.2,282.1,589.2,279.4L589.2,279.4z"/>
		<path class="st1" d="M594.6,409.6c-0.3,0-0.6,0-0.9,0c-0.3,0-0.6,0-0.9-0.3c-2.1-0.9-3.3-2.7-3.3-4.8c0-0.3,0-0.6,0-0.9l0.3-0.9
			c0.3-0.6,0.6-1.2,1.2-1.8c0.6-0.6,1.2-0.9,1.8-1.2c2.4-1.2,5.4-0.3,6.6,2.1c0.3,0.9,0.6,1.8,0.6,2.7c0,0.3,0,0.6,0,0.9
			c0,0.3-0.3,0.6-0.3,0.9c0,0.3-0.3,0.6-0.6,0.9c-0.3,0.3-0.3,0.6-0.6,0.9c-0.6,0.6-1.2,0.9-1.8,1.2c-0.3,0-0.6,0.3-0.9,0.3
			C595.2,409.6,594.9,409.6,594.6,409.6z"/>
		<path class="st1" d="M320.7,450.1c-0.6-2.7,1.5-5.4,4.2-6l0,0c2.7-0.6,5.4,1.5,6,4.2l0,0c0.6,2.7-1.5,5.4-4.2,6l0,0h-0.9l0,0
			C323.1,454.3,321,452.5,320.7,450.1z M294.9,450.1c-2.7-0.3-4.8-2.7-4.5-5.4c0-0.3,0-0.6,0.3-0.9l0,0c0.6-2.7,3.3-4.8,6-4.2l0,0
			c2.7,0.6,4.8,3.3,4.2,6l0,0c-0.3,2.4-2.4,4.5-4.8,4.5l0,0H294.9z M350.4,445.3c-0.6-2.7,1.5-5.4,4.2-6l0,0c2.7-0.3,5.4,1.5,6,4.2
			l0,0c0.6,2.7-1.2,5.4-3.9,6h-0.3l0,0h-0.9l0,0C353.1,449.5,351,447.7,350.4,445.3L350.4,445.3z M265.2,444.7
			c-2.7-0.3-4.8-2.7-4.5-5.4c0-0.3,0-0.3,0-0.6l0,0c0.3-2.7,2.7-4.8,5.4-4.2c0.3,0,0.3,0,0.6,0l0,0c2.7,0.6,4.8,3.3,4.2,6l0,0
			c-0.3,2.4-2.4,4.2-4.8,4.5l0,0h-0.9V444.7z M380.4,440.2c-0.6-2.7,1.2-5.4,3.9-6c0.3,0,0.3,0,0.6,0l0,0c2.7-0.6,5.4,1.5,6,4.2l0,0
			c0.3,2.7-1.5,5.4-4.2,6h-0.9C382.8,444.4,380.7,442.6,380.4,440.2z M235.2,439.9c-2.7-0.6-4.8-3.3-4.2-6l0,0
			c0.6-2.7,3.3-4.8,6-4.2l0,0c2.7,0.3,4.8,2.7,4.2,5.4c0,0.3,0,0.3,0,0.6l0,0c-0.3,2.4-2.4,4.2-4.8,4.2H235.2L235.2,439.9z
			 M410.1,435.1c-0.6-2.7,1.2-5.4,3.9-6c0.3,0,0.3,0,0.6,0l0,0c2.7-0.6,5.4,1.5,6,4.2l0,0c0.3,2.7-1.5,5.4-4.2,6h-0.9
			C412.8,439.3,410.7,437.5,410.1,435.1z M205.5,434.8c-2.7-0.6-4.5-3-4.2-6l0,0c0.6-2.7,3.3-4.8,6-4.2l0,0c2.7,0.3,4.8,2.7,4.2,5.4
			c0,0.3,0,0.3,0,0.6l0,0c-0.3,2.4-2.4,4.2-4.8,4.2H205.5L205.5,434.8z M440.1,430.3c-0.3-2.7,1.5-5.4,4.2-6l0,0
			c2.7-0.6,5.4,1.2,6,3.9c0,0.3,0,0.3,0,0.6l0,0c0.6,2.7-1.2,5.4-3.6,6h-0.3h-0.9C442.5,434.5,440.4,432.7,440.1,430.3z
			 M175.5,429.7c-2.7-0.6-4.5-3-4.2-5.7l0,0c0.6-2.7,3-4.8,6-4.2l0,0c2.7,0.6,4.8,3.3,4.2,6l0,0c-0.3,2.4-2.4,4.2-4.8,4.2
			L175.5,429.7L175.5,429.7z M469.8,425.2c-0.3-2.7,1.5-5.4,4.2-6l0,0c2.7-0.6,5.4,1.5,6,4.2l0,0c0.6,2.7-1.2,5.4-3.9,6
			c-0.3,0-0.3,0-0.6,0l0,0h-0.9l0,0C472.5,429.4,470.4,427.6,469.8,425.2L469.8,425.2z M145.8,424.6c-2.7-0.3-4.8-2.7-4.2-5.4
			c0-0.3,0-0.3,0-0.6l0,0c0.6-2.7,3.3-4.8,6-4.2l0,0c2.7,0.6,4.8,3.3,4.2,6l0,0c-0.3,2.4-2.4,4.5-4.8,4.5l0,0L145.8,424.6z
			 M499.8,420.1c-0.6-2.7,1.2-5.7,3.9-6c0,0,0,0,0.3,0l0,0c2.7-0.3,5.4,1.5,6,4.2l0,0c0.6,2.7-1.2,5.4-3.9,6h-0.3l0,0h-0.9l0,0
			C502.5,424.3,500.1,422.5,499.8,420.1L499.8,420.1z M115.8,419.5c-2.7-0.6-4.8-3-4.2-6l0,0c0.6-2.7,3.3-4.8,6-4.2l0,0
			c2.7,0.6,4.8,3,4.2,6l0,0c-0.3,2.4-2.4,4.2-4.8,4.5l0,0L115.8,419.5z M529.5,415.3c-0.6-2.7,1.2-5.4,3.9-6h0.3l0,0
			c2.7-0.6,5.4,1.5,6,4.2l0,0c0.3,2.7-1.5,5.4-4.2,6h-0.9C532.2,419.5,530.1,417.7,529.5,415.3L529.5,415.3z M86.1,414.4
			c-2.7-0.6-4.8-3.3-4.2-6l0,0c0.3-2.7,3-4.8,6-4.5l0,0l0,0c2.7,0.6,4.8,3.3,4.2,6l0,0c-0.3,2.4-2.4,4.2-4.8,4.2L86.1,414.4
			L86.1,414.4z M559.5,410.2c-0.6-2.7,1.2-5.4,3.9-6c0.3,0,0.3,0,0.6,0l0,0c2.7-0.6,5.4,1.5,6,4.2l0,0c0.3,2.7-1.5,5.4-4.2,6h-0.6
			C562.2,414.7,559.8,412.9,559.5,410.2L559.5,410.2z"/>
		<path class="st1" d="M503.1,298.9l1.2,19.8c3.6-7.5,9.3-19.8,19.8-19.8c2.1,0,4.2,0.3,6.3,1.2l-3,13.8c-2.4-1.2-5.4-1.8-8.1-1.8
			c-6.3,0.6-12,4.5-14.7,10.2v42.6h-17.4v-40.5c0-7.2-0.3-14.4-0.9-21.6L503.1,298.9z M438.6,358.3c4.5-0.3,9-2.7,12-6.3v-21.6
			c-17.4,2.4-21.3,9-21.3,16.2C429.3,353.8,433.2,358.3,438.6,358.3 M450.6,354.7c-3.9,4.5-12,12-21.6,12c-9,0.3-16.8-6.6-17.1-15.9
			l0,0c0-9.9,9.3-19.2,38.7-22.8v-12.9c0-8.4-4.5-13.8-9.6-13.8c-9.6,0-22.2,21.3-22.2,21.3l-4.5-16.8c9.3-4.5,19.5-6.6,29.7-6.9
			c12.3,0,23.4,4.5,23.4,18.6v33.6c0,6,2.4,6.9,4.8,6.9c1.2,0,2.1-0.3,3-0.9l1.2,1.2c-3.3,4.8-8.7,7.8-14.4,7.8
			C455.7,366.1,450.6,361,450.6,354.7 M380.4,325c0-7.5-0.3-14.7-1.2-22.2l17.7-3.6v66h-16.5V325z M388.8,270.7c2.1,0,4.2,0.6,6,1.5
			c2.7,1.5,4.2,4.5,4.2,7.5c-0.6,5.1-5.1,8.7-10.2,8.4c-4.8,0.3-9-3.6-9.3-8.4l0,0C379.5,274.6,383.7,270.4,388.8,270.7L388.8,270.7
			 M341.1,352.3c6.6-16.8,10.8-34.2,12.6-51.9l15.6,0.6c-12,21.3-22.5,43.2-31.8,66l-6.3,0.6l-27.9-65.4l18.3-2.4L341.1,352.3z
			 M264.6,358.3c4.5-0.3,9-2.7,12-6.3v-21.6c-17.4,2.4-21.3,9-21.3,16.2C255.3,353.8,259.2,358.3,264.6,358.3 M276.6,354.7
			c-3.9,4.5-12,12-21.6,12c-9,0.3-16.8-6.6-17.1-15.9l0,0c0-9.9,9.3-19.2,38.7-22.8v-12.9c0-8.4-4.5-13.8-9.6-13.8
			c-9.6,0-22.2,21.3-22.2,21.3l-4.5-16.8c9.3-4.5,19.5-6.6,29.7-6.9c12.3,0,23.4,4.5,23.4,18.6v33.6c0,6,2.4,6.9,4.8,6.9
			c1.2,0,2.1-0.3,3-0.9l1.2,1.2c-3.3,4.8-8.4,7.8-14.4,8.1C281.4,366.4,276.3,361,276.6,354.7 M223.2,364.9h-16.8v-67.8
			c0-8.4-0.3-16.8-0.9-25.5l17.7-4.8V364.9z M139.2,384.7c-4.2,0-6.9-3.6-6.9-9c0-6.6,5.4-13.8,13.2-18.9v11.4
			C145.2,379.9,143.4,384.7,139.2,384.7 M192.3,291.7l2.1-19.2h-63.3l1.2,3l12.3,0.3l0.9,76.2c-9.6,6.9-15.3,15.6-15.3,24.6
			c-0.3,6,4.2,11.4,10.5,11.7c0.6,0,1.2,0,1.5,0c11.4,0,19.2-8.4,19.2-21.6v-45c9.3,0.6,18.6,2.7,27.3,6l1.5-14.7
			c-9.6,2.4-19.2,4.2-28.8,5.7v-43.2C173.7,275.8,185.4,281.5,192.3,291.7"/>
	</g>
</g>
</svg>
